{
  "asset": {
    "generator": "glTF-Transform v4.2.1",
    "version": "2.0"
  },
  "accessors": [
    {
      "type": "VEC3",
      "componentType": 5126,
      "count": 3756,
      "max": [
        0.010000000707805157,
        0.060526322573423386,
        0.26491227746009827
      ],
      "min": [
        -0.009999998845160007,
        -0.06052631139755249,
        -0.26491227746009827
      ],
      "bufferView": 0,
      "byteOffset": 0
    },
    {
      "type": "VEC3",
      "componentType": 5126,
      "count": 3756,
      "bufferView": 0,
      "byteOffset": 12
    },
    {
      "type": "VEC2",
      "componentType": 5126,
      "count": 3756,
      "bufferView": 0,
      "byteOffset": 24
    },
    {
      "type": "SCALAR",
      "componentType": 5125,
      "count": 7566,
      "bufferView": 1,
      "byteOffset": 0
    }
  ],
  "bufferViews": [
    {
      "buffer": 0,
      "byteOffset": 0,
      "byteLength": 120192,
      "byteStride": 32,
      "target": 34962
    },
    {
      "buffer": 0,
      "byteOffset": 120192,
      "byteLength": 30264,
      "target": 34963
    }
  ],
  "samplers": [
    {
      "magFilter": 9729,
      "minFilter": 9987,
      "wrapS": 10497,
      "wrapT": 10497
    }
  ],
  "textures": [
    {
      "source": 1,
      "sampler": 0
    },
    {
      "source": 0,
      "sampler": 0
    }
  ],
  "images": [
    {
      "mimeType": "image/png",
      "uri": "metallicRoughness_1.png"
    },
    {
      "mimeType": "image/png",
      "uri": "normal_1.png"
    }
  ],
  "buffers": [
    {
      "uri": "buffer.bin",
      "byteLength": 150456
    }
  ],
  "materials": [
    {
      "pbrMetallicRoughness": {
        "baseColorFactor": [
          0.0018211619462817907,
          0.6239604353904724,
          0.0382043719291687,
          1
        ],
        "roughnessFactor": 0.6299999952316284,
        "metallicRoughnessTexture": {
          "index": 1
        }
      },
      "normalTexture": {
        "index": 0,
        "scale": 2
      }
    }
  ],
  "meshes": [
    {
      "primitives": [
        {
          "attributes": {
            "POSITION": 0,
            "NORMAL": 1,
            "TEXCOORD_0": 2
          },
          "mode": 4,
          "material": 0,
          "indices": 3
        }
      ]
    }
  ],
  "nodes": [
    {
      "children": [
        1
      ]
    },
    {
      "name": "mesh_0",
      "mesh": 0
    }
  ],
  "scenes": [
    {
      "name": "AuxScene",
      "nodes": [
        0
      ]
    }
  ],
  "scene": 0
}